<?xml version="1.0" encoding="UTF-8" standalone="no"?>
<svg
   width="48"
   height="48"
   viewBox="0 0 48 48"
   fill="none"
   version="1.1"
   id="svg1"
   xml:space="preserve"
   xmlns="http://www.w3.org/2000/svg"
   xmlns:svg="http://www.w3.org/2000/svg"><defs
     id="defs1" /><path
     d="M 10.5,8.25 C 10.5,7.2835 11.2835,6.5 12.25,6.5 H 24 v 9.25 c 0,2.3472 1.9028,4.25 4.25,4.25 h 9.25 v 19.75 c 0,0.9665 -0.7835,1.75 -1.75,1.75 h -23.5 c -0.9665,0 -1.75,-0.7835 -1.75,-1.75 z M 36.4822,17.5 H 28.25 c -0.9665,0 -1.75,-0.7835 -1.75,-1.75 V 7.51777 Z M 12.25,4 C 9.90279,4 8,5.90279 8,8.25 v 31.5 C 8,42.0972 9.90279,44 12.25,44 h 23.5 C 38.0972,44 40,42.0972 40,39.75 V 19.2426 c 0,-1.1271 -0.4478,-2.2081 -1.2448,-3.0052 L 27.7626,5.2448 C 26.9655,4.44777 25.8845,4 24.7574,4 Z"
     fill="#212121"
     id="path1"
     style="fill:#697446;fill-opacity:1" /><g
     style="fill:#697446;fill-opacity:1"
     id="g1"
     transform="matrix(0.4994359,0,0,0.49277941,12.511861,18.358184)"><path
       d="M 37.75,6 C 38.4403,6 39,6.55964 39,7.25 V 9 h 1.75 C 41.4403,9 42,9.55964 42,10.25 42,10.9404 41.4403,11.5 40.75,11.5 H 39 v 1.75 c 0,0.6904 -0.5597,1.25 -1.25,1.25 -0.6904,0 -1.25,-0.5596 -1.25,-1.25 V 11.5 H 34.75 C 34.0596,11.5 33.5,10.9404 33.5,10.25 33.5,9.55964 34.0596,9 34.75,9 H 36.5 V 7.25 C 36.5,6.55964 37.0596,6 37.75,6 Z M 15,11.25 C 15,10.5596 14.4403,10 13.75,10 13.0596,10 12.5,10.5596 12.5,11.25 V 13 h -1.75 c -0.6904,0 -1.25001,0.5596 -1.25001,1.25 0,0.6904 0.55961,1.25 1.25001,1.25 h 1.75 v 1.75 c 0,0.6904 0.5596,1.25 1.25,1.25 0.6903,0 1.25,-0.5596 1.25,-1.25 V 15.5 h 1.75 C 17.4403,15.5 18,14.9404 18,14.25 18,13.5596 17.4403,13 16.75,13 H 15 Z M 33.75,30 C 34.4403,30 35,30.5596 35,31.25 V 33 h 1.75 c 0.6903,0 1.25,0.5596 1.25,1.25 0,0.6904 -0.5597,1.25 -1.25,1.25 H 35 v 1.75 c 0,0.6904 -0.5597,1.25 -1.25,1.25 -0.6904,0 -1.25,-0.5596 -1.25,-1.25 V 35.5 H 30.75 C 30.0596,35.5 29.5,34.9404 29.5,34.25 29.5,33.5596 30.0596,33 30.75,33 H 32.5 V 31.25 C 32.5,30.5596 33.0596,30 33.75,30 Z M 25.8895,15.4044 c 1.855,-1.855 4.8626,-1.855 6.7175,0 1.855,1.855 1.855,4.8625 0,6.7175 L 12.1132,42.6158 c -1.855,1.8549 -4.86251,1.8549 -6.7175,0 -1.85499,-1.855 -1.85499,-4.8626 0,-6.7176 z M 24.5309,20.2986 7.16347,37.666 c -0.87868,0.8787 -0.87868,2.3033 0,3.182 0.87868,0.8787 2.3033,0.8787 3.18193,0 L 27.7129,23.4806 Z m 4.9497,1.4142 1.3587,-1.3586 c 0.8787,-0.8787 0.8787,-2.3033 0,-3.182 -0.8787,-0.8787 -2.3033,-0.8787 -3.182,0 l -1.3586,1.3586 z"
       fill="#212121"
       id="path1-8"
       style="fill:#697446;fill-opacity:1" /></g></svg>
